HIERARCHY
ROOT Hips
{
	OFFSET 0.000000 71.427986 0.000000
	CHANNELS 6 Xposition Yposition Zposition Xrotation Yrotation Zrotation
	JOINT Pelvis
	{
		OFFSET 0.000000 0.000000 0.000000
		CHANNELS 3 Xrotation Yrotation Zrotation
		JOINT LeftUpLeg
		{
			OFFSET 6.797100 -2.508499 -1.318700
			CHANNELS 3 Xrotation Yrotation Zrotation
			JOINT LeftLeg
			{
				OFFSET 0.069008 -29.241863 0.690200
				CHANNELS 3 Xrotation Yrotation Zrotation
				JOINT LeftFoot
				{
					OFFSET -0.069008 -29.568123 -0.266800
					CHANNELS 3 Xrotation Yrotation Zrotation
					JOINT LeftToeBase
					{
						OFFSET 3.145500 -8.631000 16.059900
						CHANNELS 3 Xrotation Yrotation Zrotation
						End Site
						{
							OFFSET 0.000000 18.501587 0.000000
						}
					}
				}
			}
			JOINT Left_ShortSleeve
			{
				OFFSET 0.265923 -10.480953 1.153800
				CHANNELS 3 Xrotation Yrotation Zrotation
				End Site
				{
					OFFSET 1.725763 19.823879 0.000000
				}
			}
		}
		JOINT RightUpLeg
		{
			OFFSET -6.797100 -2.508499 -1.318700
			CHANNELS 3 Xrotation Yrotation Zrotation
			JOINT RightLeg
			{
				OFFSET -0.082453 -29.241932 0.688000
				CHANNELS 3 Xrotation Yrotation Zrotation
				JOINT RightFoot
				{
					OFFSET 0.082453 -29.568058 -0.264600
					CHANNELS 3 Xrotation Yrotation Zrotation
					JOINT RightToeBase
					{
						OFFSET -3.115300 -8.682800 16.113400
						CHANNELS 3 Xrotation Yrotation Zrotation
						End Site
						{
							OFFSET 0.000000 18.567114 0.000000
						}
					}
				}
			}
			JOINT Right_ShortSleeve
			{
				OFFSET -0.265923 -10.480953 1.153800
				CHANNELS 3 Xrotation Yrotation Zrotation
				End Site
				{
					OFFSET -1.725766 19.823910 0.000000
				}
			}
		}
	}
	JOINT Spine
	{
		OFFSET 0.000000 13.368103 0.470500
		CHANNELS 3 Xrotation Yrotation Zrotation
		JOINT Spine1
		{
			OFFSET 0.147000 13.837402 0.538800
			CHANNELS 3 Xrotation Yrotation Zrotation
			JOINT Spine2
			{
				OFFSET 0.168000 16.242897 -1.435500
				CHANNELS 3 Xrotation Yrotation Zrotation
				JOINT Neck
				{
					OFFSET 0.217200 18.631500 -1.679100
					CHANNELS 3 Xrotation Yrotation Zrotation
					JOINT Head
					{
						OFFSET 0.000000 6.599396 1.385900
						CHANNELS 3 Xrotation Yrotation Zrotation
						JOINT Hat
						{
							OFFSET -0.532200 27.220596 -10.096100
							CHANNELS 3 Xrotation Yrotation Zrotation
							End Site
							{
								OFFSET 0.000000 22.029861 0.000000
							}
						}
						JOINT HairD
						{
							OFFSET -10.777400 17.437393 -1.325900
							CHANNELS 3 Xrotation Yrotation Zrotation
							JOINT HairD1
							{
								OFFSET -3.290299 -11.051193 1.062200
								CHANNELS 3 Xrotation Yrotation Zrotation
								End Site
								{
									OFFSET 0.000000 11.579437 0.000000
								}
							}
						}
						JOINT HairB
						{
							OFFSET -10.777400 17.437393 1.467900
							CHANNELS 3 Xrotation Yrotation Zrotation
							JOINT HairB1
							{
								OFFSET -1.561200 -12.956299 3.590200
								CHANNELS 3 Xrotation Yrotation Zrotation
								End Site
								{
									OFFSET 0.000000 13.534866 0.000000
								}
							}
						}
						JOINT HairA
						{
							OFFSET 9.713100 17.437393 1.467900
							CHANNELS 3 Xrotation Yrotation Zrotation
							JOINT HairA1
							{
								OFFSET 1.561200 -12.956299 3.590200
								CHANNELS 3 Xrotation Yrotation Zrotation
								End Site
								{
									OFFSET 0.000000 13.534866 0.000000
								}
							}
						}
						JOINT HairC
						{
							OFFSET 9.713100 17.437393 -1.325900
							CHANNELS 3 Xrotation Yrotation Zrotation
							JOINT HairC1
							{
								OFFSET 3.290300 -11.051193 1.062200
								CHANNELS 3 Xrotation Yrotation Zrotation
								End Site
								{
									OFFSET 0.000000 11.579437 0.000000
								}
							}
						}
					}
				}
				JOINT LeftShoulder
				{
					OFFSET 5.101800 15.108002 -2.763700
					CHANNELS 3 Xrotation Yrotation Zrotation
					JOINT LeftArm
					{
						OFFSET 9.825497 2.506317 -1.597400
						CHANNELS 3 Xrotation Yrotation Zrotation
						JOINT LeftForeArm
						{
							OFFSET 21.966244 0.000000 0.000000
							CHANNELS 3 Xrotation Yrotation Zrotation
							JOINT LeftHand
							{
								OFFSET 33.879036 0.000000 0.000000
								CHANNELS 3 Xrotation Yrotation Zrotation
								JOINT LeftHandThumb1
								{
									OFFSET 6.715286 -2.359680 3.363841
									CHANNELS 3 Xrotation Yrotation Zrotation
									JOINT LeftHandThumb2
									{
										OFFSET 2.507072 -1.447464 1.447461
										CHANNELS 3 Xrotation Yrotation Zrotation
										JOINT LeftHandThumb3
										{
											OFFSET 2.898338 -1.673355 1.673357
											CHANNELS 3 Xrotation Yrotation Zrotation
											End Site
											{
												OFFSET -0.295959 3.727692 -0.131651
											}
										}
									}
								}
								JOINT LeftHandIndex1
								{
									OFFSET 14.190811 -0.254547 3.840278
									CHANNELS 3 Xrotation Yrotation Zrotation
									JOINT LeftHandIndex2
									{
										OFFSET 3.551727 0.000000 -0.000000
										CHANNELS 3 Xrotation Yrotation Zrotation
										JOINT LeftHandIndex3
										{
											OFFSET 2.894196 0.000000 0.000000
											CHANNELS 3 Xrotation Yrotation Zrotation
											End Site
											{
												OFFSET -1.000603 2.690872 0.366626
											}
										}
									}
								}
								JOINT LeftHandMiddle1
								{
									OFFSET 13.776489 0.000000 0.000000
									CHANNELS 3 Xrotation Yrotation Zrotation
									JOINT LeftHandMiddle2
									{
										OFFSET 3.438232 0.000000 0.000000
										CHANNELS 3 Xrotation Yrotation Zrotation
										JOINT LeftHandMiddle3
										{
											OFFSET 3.691551 0.000000 0.000000
											CHANNELS 3 Xrotation Yrotation Zrotation
											End Site
											{
												OFFSET -1.082298 3.499527 0.457670
											}
										}
									}
								}
								JOINT LeftHandRing1
								{
									OFFSET 13.966164 -0.268127 -3.067488
									CHANNELS 3 Xrotation Yrotation Zrotation
									JOINT LeftHandRing2
									{
										OFFSET 3.162567 0.000000 0.000000
										CHANNELS 3 Xrotation Yrotation Zrotation
										JOINT LeftHandRing3
										{
											OFFSET 3.324348 0.000000 0.000000
											CHANNELS 3 Xrotation Yrotation Zrotation
											End Site
											{
												OFFSET -0.861900 3.184998 0.405154
											}
										}
									}
								}
								JOINT LeftHandPinky1
								{
									OFFSET 13.131393 -0.168503 -5.746925
									CHANNELS 3 Xrotation Yrotation Zrotation
									JOINT LeftHandPinky2
									{
										OFFSET 2.849182 0.000000 0.000000
										CHANNELS 3 Xrotation Yrotation Zrotation
										JOINT LeftHandPinky3
										{
											OFFSET 2.805038 0.000000 0.000000
											CHANNELS 3 Xrotation Yrotation Zrotation
											End Site
											{
												OFFSET -0.882500 2.642609 0.325652
											}
										}
									}
								}
							}
							JOINT Left_Sleeve
							{
								OFFSET 6.592125 -0.646545 0.805568
								CHANNELS 3 Xrotation Yrotation Zrotation
								End Site
								{
									OFFSET -0.000179 20.275787 -0.000000
								}
							}
						}
					}
				}
				JOINT RightShoulder
				{
					OFFSET -5.731700 15.108002 -2.763700
					CHANNELS 3 Xrotation Yrotation Zrotation
					JOINT RightArm
					{
						OFFSET -9.825497 2.506317 -1.597400
						CHANNELS 3 Xrotation Yrotation Zrotation
						JOINT RightForeArm
						{
							OFFSET -21.966242 0.000000 0.000000
							CHANNELS 3 Xrotation Yrotation Zrotation
							JOINT RightHand
							{
								OFFSET -33.879032 0.000000 0.000000
								CHANNELS 3 Xrotation Yrotation Zrotation
								JOINT RightHandThumb1
								{
									OFFSET -6.715286 -2.359680 3.363841
									CHANNELS 3 Xrotation Yrotation Zrotation
									JOINT RightHandThumb2
									{
										OFFSET -2.507072 -1.447464 1.447461
										CHANNELS 3 Xrotation Yrotation Zrotation
										JOINT RightHandThumb3
										{
											OFFSET -2.898338 -1.673355 1.673357
											CHANNELS 3 Xrotation Yrotation Zrotation
											End Site
											{
												OFFSET 0.295959 3.727692 -0.131651
											}
										}
									}
								}
								JOINT RightHandIndex1
								{
									OFFSET -14.190811 -0.254547 3.840278
									CHANNELS 3 Xrotation Yrotation Zrotation
									JOINT RightHandIndex2
									{
										OFFSET -3.551727 0.000000 -0.000000
										CHANNELS 3 Xrotation Yrotation Zrotation
										JOINT RightHandIndex3
										{
											OFFSET -2.894196 0.000000 0.000000
											CHANNELS 3 Xrotation Yrotation Zrotation
											End Site
											{
												OFFSET 1.000603 2.690872 0.366626
											}
										}
									}
								}
								JOINT RightHandMiddle1
								{
									OFFSET -13.776489 0.000000 0.000000
									CHANNELS 3 Xrotation Yrotation Zrotation
									JOINT RightHandMiddle2
									{
										OFFSET -3.438232 0.000000 0.000000
										CHANNELS 3 Xrotation Yrotation Zrotation
										JOINT RightHandMiddle3
										{
											OFFSET -3.691551 0.000000 0.000000
											CHANNELS 3 Xrotation Yrotation Zrotation
											End Site
											{
												OFFSET 1.082298 3.499527 0.457670
											}
										}
									}
								}
								JOINT RightHandRing1
								{
									OFFSET -13.966164 -0.268127 -3.067488
									CHANNELS 3 Xrotation Yrotation Zrotation
									JOINT RightHandRing2
									{
										OFFSET -3.162567 0.000000 0.000000
										CHANNELS 3 Xrotation Yrotation Zrotation
										JOINT RightHandRing3
										{
											OFFSET -3.324348 0.000000 0.000000
											CHANNELS 3 Xrotation Yrotation Zrotation
											End Site
											{
												OFFSET 0.861900 3.184998 0.405154
											}
										}
									}
								}
								JOINT RightHandPinky1
								{
									OFFSET -13.131393 -0.168503 -5.746925
									CHANNELS 3 Xrotation Yrotation Zrotation
									JOINT RightHandPinky2
									{
										OFFSET -2.849182 0.000000 0.000000
										CHANNELS 3 Xrotation Yrotation Zrotation
										JOINT RightHandPinky3
										{
											OFFSET -2.805038 0.000000 0.000000
											CHANNELS 3 Xrotation Yrotation Zrotation
											End Site
											{
												OFFSET 0.882500 2.642609 0.325652
											}
										}
									}
								}
							}
							JOINT Right_Sleeve
							{
								OFFSET -6.592125 -0.646545 0.805568
								CHANNELS 3 Xrotation Yrotation Zrotation
								End Site
								{
									OFFSET 0.000179 20.275787 -0.000000
								}
							}
						}
					}
				}
				JOINT Bind_Right_JacketString
				{
					OFFSET -3.534800 11.969597 7.200700
					CHANNELS 3 Xrotation Yrotation Zrotation
					JOINT Bind_Right_JacketString1
					{
						OFFSET -0.319900 -6.102600 2.794100
						CHANNELS 3 Xrotation Yrotation Zrotation
						End Site
						{
							OFFSET 0.000000 6.719452 0.000000
						}
					}
				}
				JOINT Bind_Left_JacketString
				{
					OFFSET 2.904800 11.969597 7.200700
					CHANNELS 3 Xrotation Yrotation Zrotation
					JOINT Bind_Left_JacketString1
					{
						OFFSET 0.364800 -5.904503 3.186800
						CHANNELS 3 Xrotation Yrotation Zrotation
						End Site
						{
							OFFSET 0.000000 6.719513 0.000000
						}
					}
				}
				JOINT HairE
				{
					OFFSET 5.915200 17.612701 -11.592200
					CHANNELS 3 Xrotation Yrotation Zrotation
					JOINT HairE1
					{
						OFFSET 0.289200 -7.171898 -1.284500
						CHANNELS 3 Xrotation Yrotation Zrotation
						End Site
						{
							OFFSET 0.000000 7.291756 0.000000
						}
					}
				}
				JOINT HairF
				{
					OFFSET -0.864800 17.612701 -11.592200
					CHANNELS 3 Xrotation Yrotation Zrotation
					JOINT HairF1
					{
						OFFSET 0.000000 -14.087097 -2.127501
						CHANNELS 3 Xrotation Yrotation Zrotation
						End Site
						{
							OFFSET 0.000000 14.246841 0.000000
						}
					}
				}
				JOINT HairG
				{
					OFFSET -8.087700 17.612701 -11.592200
					CHANNELS 3 Xrotation Yrotation Zrotation
					JOINT HairG1
					{
						OFFSET -0.293600 -6.081398 -0.910100
						CHANNELS 3 Xrotation Yrotation Zrotation
						End Site
						{
							OFFSET 0.000000 6.156120 0.000000
						}
					}
				}
			}
		}
	}
	JOINT Pouch
	{
		OFFSET 0.000000 4.394501 10.847300
		CHANNELS 3 Xrotation Yrotation Zrotation
		End Site
		{
			OFFSET 0.000000 21.880577 0.000000
		}
	}
	JOINT Bag
	{
		OFFSET -13.229000 4.813004 -0.593300
		CHANNELS 3 Xrotation Yrotation Zrotation
		End Site
		{
			OFFSET 0.000000 21.880577 0.000000
		}
	}
	JOINT OccupyGuyFacialAnim_Joint
	{
		OFFSET 1.000000 -70.206398 -1.655000
		CHANNELS 3 Xrotation Yrotation Zrotation
		End Site
		{
			OFFSET 0.000000 21.880577 0.000000
		}
	}
}
MOTION
Frames: 4
Frame Time: 0.033333
4.809671 69.011032 2.228610 -3.557268 -30.795038 1.341972 -0.000000 0.000000 0.000000 -21.080595 40.529533 16.573961 25.266540 6.685979 -0.578528 -4.600615 1.052554 -2.607559 0.000000 -0.000000 0.000000 0.000002 0.000000 -0.000000 -0.582735 4.314502 -12.177647 25.708590 0.937409 1.003868 -19.181318 -18.514995 8.430969 0.000000 0.000000 -0.000000 0.000000 0.000001 -0.000000 2.924861 -0.188292 -0.442972 5.848259 -0.390380 -0.875991 5.848260 -0.390392 -0.875990 -0.883771 26.118205 -5.085154 -12.133236 13.409290 0.401835 -0.000000 0.000000 0.000000 -0.000000 0.000000 0.000000 -0.000000 0.000000 -0.000000 -0.000000 0.000000 0.000000 -0.000000 -0.000001 -0.000000 -0.000000 0.000000 0.000000 -0.000000 -0.000001 -0.000000 -0.000000 0.000000 0.000000 -0.000000 0.000000 0.000000 -18.934983 7.366267 -4.623288 -4.189726 -19.755632 -74.317321 -22.453169 -68.272611 -27.042483 -100.597929 -26.404466 17.629859 3.592083 4.185679 -5.133819 1.252894 4.302577 1.889378 -0.000000 0.000003 0.000000 7.554893 5.560409 -33.410379 -14.917840 -6.767449 -80.641878 0.000001 0.000003 -0.000001 -0.349208 -1.566804 -62.979228 -6.177664 -6.585482 -60.286180 -0.000003 0.000001 0.000003 -5.286462 4.624207 -73.484701 0.757946 -3.521236 -58.282844 -0.000002 -0.000000 -0.000000 -16.248779 1.424889 -86.150569 2.608786 -7.578013 -55.784727 0.000000 -0.000001 0.000003 0.000000 -0.000000 0.000001 14.829579 0.115980 -0.444157 3.392381 38.346758 41.241638 -3.479719 115.438052 -0.032987 -33.753046 -20.046650 5.024227 15.407455 -4.518733 17.010986 11.550400 4.015417 -20.411394 -0.000001 0.000000 -0.000001 1.857047 -0.976112 4.781783 -1.775901 -0.095288 22.317061 -0.000000 0.000000 -0.000005 3.631171 5.779689 48.858805 -9.397618 -0.919663 110.759768 0.000001 0.000001 -0.000002 -8.676854 -5.659679 54.892294 -4.714165 8.864021 96.803752 -0.000000 -0.000001 -0.000002 -12.562936 0.077578 69.885293 -3.484589 14.093092 79.770531 -0.000000 -0.000001 0.000000 -0.000002 -0.000000 -0.000000 0.000000 0.000001 0.000000 -0.000000 0.000001 0.000000 0.000000 0.000001 -0.000000 0.000000 0.000001 -0.000000 0.000000 0.000001 0.000000 -0.000000 0.000001 0.000000 0.000000 0.000001 -0.000000 0.000000 0.000001 -0.000000 0.000000 0.000001 0.000000 -0.000000 0.000001 0.000000 -0.000000 0.000000 0.000000 -0.000000 0.000000 0.000000 -0.000000 0.000000 0.000000 
4.742733 68.982819 2.260649 -3.725936 -30.759863 1.369898 -0.000000 -0.000000 -0.000000 -21.088798 41.003138 16.773497 25.410720 6.570356 -0.592066 -4.694142 0.614447 -2.596505 -0.000000 0.000000 -0.000000 0.000000 0.000001 0.000000 -0.472526 4.502608 -12.231163 26.016628 0.824696 1.009005 -19.453031 -18.301377 8.412052 -0.000000 0.000000 -0.000000 -0.000000 0.000001 -0.000001 2.899245 -0.171527 -0.480507 5.797062 -0.358600 -0.944087 5.797068 -0.358621 -0.944086 -0.865465 26.128537 -5.120557 -12.106503 13.387766 0.479790 -0.000000 -0.000000 0.000000 -0.000000 -0.000000 0.000000 -0.000000 -0.000000 -0.000000 -0.000000 -0.000000 -0.000000 -0.000000 0.000001 -0.000000 -0.000000 -0.000000 -0.000000 -0.000000 0.000001 -0.000000 -0.000000 -0.000000 0.000000 -0.000000 -0.000000 0.000000 -18.933336 7.392690 -4.612938 -4.294407 -19.815270 -74.320900 -22.088765 -68.042440 -26.590627 -100.507620 -26.218914 17.920750 3.606057 4.281737 -5.205654 1.252892 4.302577 1.889378 0.000001 0.000001 -0.000001 7.554884 5.560407 -33.410389 -14.917843 -6.767399 -80.641899 0.000001 0.000003 -0.000003 -0.349222 -1.566792 -62.979228 -6.177664 -6.585455 -60.286180 0.000000 -0.000001 0.000001 -5.286465 4.624218 -73.484708 0.757955 -3.521219 -58.282844 -0.000000 0.000000 -0.000001 -16.248791 1.424920 -86.150590 2.608786 -7.577992 -55.784720 -0.000000 0.000002 -0.000000 0.000001 0.000001 0.000007 14.825067 0.120636 -0.492546 3.309878 38.573176 41.311580 -3.184327 115.214554 -0.368394 -34.006388 -20.138032 4.883077 15.407443 -4.518749 17.011001 11.550422 4.015421 -20.411397 -0.000001 -0.000001 0.000002 1.857060 -0.976119 4.781774 -1.775903 -0.095271 22.317078 -0.000000 -0.000000 0.000002 3.631149 5.779685 48.858833 -9.397614 -0.919643 110.759775 0.000000 -0.000000 -0.000001 -8.676853 -5.659691 54.892311 -4.714173 8.864056 96.803752 0.000001 -0.000006 0.000003 -12.562959 0.077562 69.885293 -3.484603 14.093119 79.770578 0.000002 0.000001 0.000002 0.000002 0.000001 0.000002 -0.000000 -0.000001 0.000000 -0.000000 -0.000001 0.000000 -0.000000 -0.000001 0.000000 -0.000000 -0.000001 0.000000 -0.000000 -0.000001 0.000000 -0.000000 -0.000001 0.000000 -0.000000 -0.000001 0.000000 -0.000000 -0.000001 0.000000 -0.000000 -0.000001 0.000000 -0.000000 -0.000001 0.000000 -0.000000 -0.000000 -0.000000 -0.000000 -0.000000 -0.000000 -0.000000 -0.000000 -0.000000 
4.562012 68.903175 2.359087 -3.946350 -30.665162 1.404879 -0.000000 0.000002 0.000000 -21.362327 41.718379 17.354703 25.946664 6.424605 -0.620917 -5.001592 -0.200953 -2.667397 -0.000000 0.000000 -0.000000 0.000000 -0.000000 -0.000000 -0.401262 4.532993 -12.275838 26.700651 0.679218 1.025181 -20.048924 -17.949840 8.343062 -0.000000 -0.000000 -0.000000 -0.000001 -0.000000 0.000000 2.870943 -0.154494 -0.522568 5.740508 -0.326427 -1.018809 5.740504 -0.326423 -1.018810 -0.810187 26.139551 -5.179522 -11.996649 13.335285 0.579026 -0.000000 0.000001 0.000000 -0.000000 0.000001 0.000000 -0.000000 0.000001 0.000000 -0.000000 0.000001 0.000000 -0.000000 -0.000000 0.000000 -0.000000 0.000001 0.000000 -0.000000 -0.000000 0.000000 -0.000000 0.000001 0.000000 -0.000000 0.000001 0.000000 -18.927619 7.422484 -4.620690 -4.470671 -19.870542 -74.249272 -21.763665 -67.816142 -26.122318 -100.379322 -25.898433 18.436615 3.617332 4.358224 -5.263496 1.252883 4.302571 1.889377 -0.000001 -0.000000 -0.000001 7.554900 5.560424 -33.410379 -14.917845 -6.767446 -80.641913 0.000000 0.000002 -0.000002 -0.349210 -1.566786 -62.979228 -6.177644 -6.585498 -60.286159 -0.000001 -0.000001 0.000001 -5.286461 4.624217 -73.484694 0.757967 -3.521228 -58.282851 -0.000000 0.000003 -0.000001 -16.248793 1.424915 -86.150590 2.608788 -7.577991 -55.784737 -0.000001 -0.000003 0.000001 0.000001 0.000001 -0.000002 14.822064 0.110547 -0.544125 3.035306 38.955547 41.508269 -2.755040 115.000701 -0.846984 -34.347297 -20.466404 4.581787 15.407478 -4.518732 17.010982 11.550384 4.015420 -20.411380 -0.000000 0.000000 -0.000000 1.857050 -0.976125 4.781781 -1.775895 -0.095275 22.317061 0.000001 0.000000 0.000000 3.631180 5.779697 48.858805 -9.397615 -0.919640 110.759782 0.000001 0.000003 -0.000002 -8.676858 -5.659685 54.892301 -4.714149 8.864028 96.803766 0.000003 -0.000002 -0.000001 -12.562934 0.077573 69.885280 -3.484610 14.093102 79.770558 -0.000000 -0.000001 -0.000001 0.000002 -0.000000 -0.000000 0.000000 -0.000001 0.000000 0.000000 -0.000001 0.000000 0.000000 -0.000001 0.000000 0.000000 -0.000001 0.000000 0.000000 -0.000001 0.000000 0.000000 -0.000001 0.000000 0.000000 -0.000001 0.000000 0.000000 -0.000001 0.000000 0.000000 -0.000001 0.000000 0.000000 -0.000001 0.000000 -0.000000 0.000002 0.000000 -0.000000 0.000002 0.000000 -0.000000 0.000002 0.000000 
4.298565 68.785942 2.506303 -4.204205 -30.527343 1.445430 0.000000 0.000001 0.000000 -21.865838 42.667966 18.266395 26.742272 6.288839 -0.658658 -5.449438 -1.379439 -2.789429 0.000000 -0.000000 -0.000000 -0.000001 -0.000000 -0.000000 -0.312855 4.482542 -12.313270 27.605555 0.515199 1.047463 -20.866959 -17.531882 8.241392 0.000000 0.000000 -0.000000 0.000000 0.000001 -0.000000 2.841170 -0.139698 -0.568326 5.680999 -0.298971 -1.099098 5.681002 -0.298964 -1.099098 -0.737256 26.162860 -5.272416 -11.820229 13.296958 0.724059 -0.000000 -0.000001 -0.000000 -0.000000 -0.000001 -0.000000 -0.000000 -0.000001 -0.000000 -0.000000 -0.000001 -0.000000 -0.000000 -0.000001 -0.000000 -0.000000 -0.000001 -0.000000 -0.000000 -0.000001 -0.000000 -0.000000 -0.000001 -0.000000 -0.000000 -0.000001 -0.000000 -18.925906 7.452420 -4.606823 -4.729227 -19.996396 -74.150057 -21.487143 -67.499993 -25.628424 -100.237609 -25.509894 19.031070 3.636198 4.484385 -5.351701 1.252897 4.302583 1.889376 0.000001 0.000001 -0.000001 7.554898 5.560427 -33.410386 -14.917838 -6.767450 -80.641926 -0.000001 0.000003 -0.000003 -0.349213 -1.566797 -62.979235 -6.177649 -6.585497 -60.286187 0.000001 0.000000 0.000001 -5.286463 4.624212 -73.484714 0.757936 -3.521237 -58.282844 -0.000001 0.000000 0.000001 -16.248790 1.424913 -86.150590 2.608805 -7.577994 -55.784720 -0.000001 0.000001 0.000003 -0.000000 -0.000000 -0.000000 14.820855 0.088766 -0.585294 2.659199 39.468853 41.739344 -2.360611 114.734064 -1.343666 -34.800299 -20.881324 4.201763 15.407459 -4.518726 17.011008 11.550393 4.015414 -20.411409 0.000002 -0.000001 0.000003 1.857044 -0.976115 4.781788 -1.775914 -0.095294 22.317069 -0.000000 -0.000000 0.000000 3.631164 5.779697 48.858805 -9.397592 -0.919659 110.759768 0.000001 0.000001 0.000001 -8.676855 -5.659679 54.892301 -4.714171 8.864021 96.803759 0.000003 0.000001 -0.000001 -12.562951 0.077556 69.885300 -3.484588 14.093104 79.770558 -0.000002 0.000000 -0.000001 0.000002 -0.000001 0.000000 -0.000000 0.000001 0.000000 -0.000000 0.000001 0.000000 -0.000000 0.000001 -0.000000 -0.000000 0.000001 -0.000000 -0.000000 0.000001 0.000000 -0.000000 0.000001 -0.000000 -0.000000 0.000001 -0.000000 -0.000000 0.000001 -0.000000 -0.000000 0.000001 0.000000 -0.000000 0.000001 -0.000000 0.000000 0.000001 0.000000 0.000000 0.000001 0.000000 0.000000 0.000001 0.000000 
